<svg
    width="32"
    height="32"
    viewBox="0 0 32 32"
    fill="none"
    xmlns="http://www.w3.org/2000/svg"
    style="background-color: #fff"
>
    <path
        fill-rule="evenodd"
        clip-rule="evenodd"
        d="M24.83 14.0483C26.481 16.996 25.5886 18.0585 25.4947 18.3411C25.3367 18.818 25.3711 19.3172 25.5979 19.8396C25.9836 20.8491 25.926 21.5853 25.4222 22.0482C24.844 22.4582 24.3132 22.4229 23.827 21.9432C23.3827 21.4542 23.3474 20.7738 23.722 19.9009C24.4359 17.1931 23.5138 16.1464 21.7634 15.4511C20.5215 14.9575 18.8231 14.6237 17.3302 14.291C15.3558 13.8503 13.0542 13.0416 11.0872 11.8899C4.50772 8.03772 6.70337 4.69869 11.7946 6.07353C9.1844 5.89598 8.27528 6.36728 8.04939 7.00031C7.6943 7.99682 10.1288 10.054 14.1892 11.3898C18.5731 12.7246 23.0573 13.247 24.8347 15.9586C24.7315 15.5273 24.5735 15.1369 24.3625 14.7808C24.5326 14.5457 24.6878 14.3021 24.83 14.0483Z"
        fill="#F075B5"></path>
    <path
        fill-rule="evenodd"
        clip-rule="evenodd"
        d="M16.4924 4.51613C16.6942 4.51613 16.8587 4.67974 16.8587 4.88239C16.8587 5.0841 16.6951 5.24864 16.4924 5.24864C16.2907 5.24864 16.1262 5.08503 16.1262 4.88239C16.1271 4.67974 16.2907 4.51613 16.4924 4.51613ZM21.6423 8.87676C21.9992 8.87676 22.2893 9.16679 22.2893 9.52374C22.2893 9.88163 21.9992 10.1707 21.6423 10.1707C21.2853 10.1707 20.9953 9.8807 20.9953 9.52374C20.9944 9.16679 21.2844 8.87676 21.6423 8.87676ZM19.9254 5.30348C20.485 5.30348 20.9386 5.75711 20.9386 6.31672C20.9386 6.87632 20.485 7.32995 19.9254 7.32995C19.3658 7.32995 18.9121 6.87632 18.9121 6.31672C18.9121 5.75711 19.3658 5.30348 19.9254 5.30348ZM17.027 6.90793C17.4155 6.90793 17.7306 7.22305 17.7306 7.61161C17.7306 8.00017 17.4155 8.3153 17.027 8.3153C16.6384 8.3153 16.3233 8.00017 16.3233 7.61161C16.3233 7.22305 16.6393 6.90793 17.027 6.90793ZM10.9531 8.82656C11.6168 5.50334 14.5506 3 18.069 3C22.0764 3 25.3252 6.24886 25.3252 10.2562C25.3252 11.2713 25.117 12.2372 24.7406 13.1147C24.5546 13.5479 24.3278 13.9587 24.0657 14.3436C22.8219 12.7549 20.3437 11.9351 16.8448 11.2435C14.3805 10.7554 12.4367 10.0638 10.9531 8.82656Z"
        fill="#C43A80"></path>
    <path
        fill-rule="evenodd"
        clip-rule="evenodd"
        d="M21.6425 8.87682C21.9995 8.87682 22.2895 9.16685 22.2895 9.5238C22.2895 9.88169 21.9995 10.1708 21.6425 10.1708C21.2856 10.1708 20.9956 9.88076 20.9956 9.5238C20.9946 9.16685 21.2847 8.87682 21.6425 8.87682ZM19.9256 5.30354C20.4852 5.30354 20.9389 5.75717 20.9389 6.31678C20.9389 6.87638 20.4852 7.33001 19.9256 7.33001C19.366 7.33001 18.9124 6.87638 18.9124 6.31678C18.9124 5.75717 19.366 5.30354 19.9256 5.30354ZM20.1106 3.29102C23.1243 4.17318 25.3246 6.95725 25.3246 10.2554C25.3246 11.2705 25.1164 12.2363 24.7399 13.1138C24.554 13.547 24.3272 13.9579 24.065 14.3427C23.1866 13.2216 21.6937 12.4826 19.6607 11.9026C19.5296 11.382 19.3465 10.8577 19.1122 10.3325C17.901 7.61911 18.2226 5.27751 20.1106 3.29102Z"
        fill="#DA579B"></path>
    <path
        fill-rule="evenodd"
        clip-rule="evenodd"
        d="M10.9531 8.82639C11.3807 6.68652 12.75 4.88593 14.611 3.87549C13.8608 5.97446 14.2392 8.11341 15.9933 10.0869C16.3326 10.4689 16.6337 10.8575 16.8959 11.2526L16.8457 11.2424C14.3805 10.7553 12.4367 10.0637 10.9531 8.82639Z"
        fill="#AE1C66"></path>
    <path
        fill-rule="evenodd"
        clip-rule="evenodd"
        d="M21.8945 16.4227C20.7837 17.1134 19.473 17.5122 18.0684 17.5122C15.0287 17.5122 12.4259 15.6428 11.3457 12.9907C12.1172 13.3997 12.926 13.7613 13.7384 14.0737C14.905 14.5217 16.0754 14.8685 17.1518 15.1092C17.9531 15.2886 17.7653 15.2468 17.8248 15.2598C19.1114 15.5415 20.475 15.8399 21.4567 16.2303C21.611 16.2907 21.7579 16.3548 21.8945 16.4227Z"
        fill="#C43A80"></path>
    <path
        fill-rule="evenodd"
        clip-rule="evenodd"
        d="M21.8943 16.4224C21.0521 16.9457 20.0946 17.3018 19.0684 17.444C19.3463 16.863 19.5555 16.2783 19.6958 15.689C20.3419 15.8516 20.9498 16.0283 21.4555 16.229C21.6107 16.2904 21.7576 16.3545 21.8943 16.4224Z"
        fill="#DA579B"></path>
    <path
        fill-rule="evenodd"
        clip-rule="evenodd"
        d="M17.7969 17.507C14.8744 17.3992 12.3933 15.5633 11.3457 12.9902C12.1172 13.3992 12.926 13.7608 13.7384 14.0732C14.905 14.5212 16.0754 14.868 17.1518 15.1087C17.9531 15.2881 17.7653 15.2463 17.8248 15.2593L18.1455 15.33C18.1334 16.0271 18.0191 16.7513 17.7969 17.507Z"
        fill="#AE1C66"></path>
    <path
        d="M10.8887 13.8901L11.0049 27.3569C11.0293 28.2963 11.6358 28.8934 12.3383 28.9901C14.5621 26.5821 16.7118 20.8812 17.5087 18.3317C14.607 18.1131 12.1326 16.364 10.8887 13.8901Z"
        fill="#E0985E"></path>
    <path
        d="M18.125 18.3547C17.9175 18.3547 17.7119 18.3469 17.5083 18.3315C16.7114 20.881 14.5617 26.5819 12.3379 28.9899C12.4998 29.0121 12.6667 29.0078 12.8328 28.975C13.8526 28.1552 17.0746 21.5456 18.5582 18.3433C18.4147 18.3509 18.2703 18.3547 18.125 18.3547Z"
        fill="#EEB07C"></path>
    <path
        d="M13.8807 28.2909L21.9364 17.4019C20.9203 17.9457 19.7755 18.279 18.5593 18.3433C17.0758 21.5456 13.8537 28.1552 12.834 28.975C13.2103 28.9007 13.5823 28.6802 13.8807 28.2909Z"
        fill="#FCC89A"></path>
</svg>