<svg xmlns="http://www.w3.org/2000/svg" width="162" height="32" viewBox="0 0 162 32"><rect width="162" height="32" fill="#161312" rx="4"/><path fill="#1B1F24" d="M32 0h1v32h-1z"/><path fill="#fff" fill-rule="evenodd" d="M16.16 7C11.095 7 7 11.125 7 16.228a9.22 9.22 0 0 0 6.263 8.754c.455.092.622-.198.622-.442 0-.214-.015-.948-.015-1.712-2.548.55-3.079-1.1-3.079-1.1-.41-1.07-1.016-1.344-1.016-1.344-.834-.565.06-.565.06-.565.926.06 1.411.947 1.411.947.82 1.405 2.139 1.008 2.67.764.075-.596.318-1.009.576-1.238-2.032-.214-4.17-1.008-4.17-4.553 0-1.008.363-1.833.94-2.475-.091-.229-.41-1.176.09-2.444 0 0 .774-.245 2.518.947a8.8 8.8 0 0 1 2.29-.306 8.8 8.8 0 0 1 2.29.306c1.744-1.192 2.518-.947 2.518-.947.5 1.268.181 2.215.09 2.444.592.642.94 1.467.94 2.475 0 3.545-2.137 4.324-4.185 4.553.334.29.622.84.622 1.711 0 1.238-.015 2.231-.015 2.536 0 .245.167.535.622.444a9.22 9.22 0 0 0 6.263-8.755C25.32 11.125 21.21 7 16.16 7" clip-rule="evenodd"/><path fill="#fff" d="M49.215 22.101 46 11.25h1.622l2.084 7.413.492 1.965h.089l.476-1.95 2.114-7.428h1.607l-3.2 10.851zm6.311 0v-7.86h1.46v7.86zm0-9.02V11.25h1.46v1.83zm6.044 9.169q-1.027 0-1.742-.491-.7-.491-1.057-1.4-.357-.907-.357-2.173 0-1.28.342-2.188.358-.908 1.057-1.399.7-.491 1.727-.491 1.101 0 1.786.55.685.537.983 1.504.297.968.223 2.277h-4.674q0 .953.208 1.548.209.581.596.849t.908.268q.67 0 1.042-.372.387-.387.506-1.057h1.399q-.09.863-.491 1.444-.402.565-1.042.848-.625.283-1.414.283m-1.712-4.585-.149-.208h3.543l-.15.223q.016-.908-.193-1.444-.193-.535-.55-.759-.358-.238-.82-.238-.505 0-.877.253-.358.238-.566.774t-.238 1.4m6.867 4.435-1.653-7.86h1.4l1.25 6.476h.06l1.19-6.475h1.652l1.266 6.49h.06l1.22-6.49h1.384l-1.697 7.86h-1.846l-1.19-6.089h-.075l-1.131 6.088zm14.914.134q-.774 0-1.384-.268t-1.027-.789q-.417-.536-.64-1.28-.223-.759-.223-1.726 0-1.25.372-2.159.372-.923 1.101-1.414.744-.491 1.801-.491.774 0 1.37.268.61.268 1.027.804.417.52.64 1.28.223.744.223 1.712 0 1.25-.372 2.173-.372.908-1.102 1.399-.729.491-1.786.491m-.015-1.206q.551 0 .953-.297.402-.298.61-.923.224-.64.224-1.637 0-.745-.12-1.28-.119-.551-.357-.894-.223-.357-.55-.52t-.745-.164q-.55 0-.952.297-.402.298-.626.923t-.223 1.652q0 .745.12 1.28.133.536.357.894.238.342.565.506.343.163.744.163m4.69 1.072v-7.86h1.413l.06 1.37h.074q.283-.744.878-1.116.61-.387 1.37-.387.52 0 .952.179.447.163.76.52.312.358.476.938.164.566.164 1.385v4.97h-1.474v-4.733q0-.745-.164-1.191-.149-.447-.476-.655-.313-.208-.804-.208-.565 0-.967.312-.387.298-.596.819-.193.52-.193 1.19V22.1z"/><path d="M118.24 20.408h-.02s0 .02.02 0m0 .02c-.103 0-.373.063-.663.063-.913 0-1.224-.415-1.224-.954v-3.63h1.846c.104 0 .187-.083.187-.228v-1.97a.186.186 0 0 0-.187-.187h-1.846v-2.447c0-.083-.062-.145-.166-.145h-2.489c-.103 0-.166.062-.166.145v2.51l-1.348.331a.2.2 0 0 0-.145.187v1.576c0 .125.083.228.187.228h1.286v3.796c0 2.82 1.97 3.111 3.318 3.111.622 0 1.348-.187 1.473-.249.062-.02.103-.104.103-.187v-1.742a.22.22 0 0 0-.165-.207m27.399-2.55c0-2.095-.85-2.365-1.743-2.282a2.95 2.95 0 0 0-1.244.394v4.066s.56.394 1.41.414c1.203.042 1.577-.373 1.577-2.592m2.82-.187c0 3.962-1.286 5.102-3.526 5.102-1.887 0-2.924-.954-2.924-.954s-.042.54-.104.602c-.041.062-.083.083-.166.083h-1.721c-.125 0-.228-.083-.228-.187l.02-12.86c0-.103.083-.186.187-.186h2.468c.104 0 .187.083.187.187l-.02 4.335s.953-.623 2.343-.623h.02c1.41.021 3.464.54 3.464 4.501m-10.08-4.169h-2.426c-.125 0-.187.083-.187.228v6.285s-.643.456-1.514.456-1.12-.394-1.12-1.265V13.73a.186.186 0 0 0-.187-.187h-2.468a.186.186 0 0 0-.186.187v5.91c0 2.552 1.43 3.174 3.38 3.174 1.618 0 2.925-.892 2.925-.892s.062.456.083.519c.02.062.103.103.186.103h1.556c.124 0 .187-.083.187-.186l.02-8.649c-.041-.104-.124-.187-.249-.187m-27.418-.02h-2.468c-.104 0-.187.103-.187.228v8.483c0 .228.145.31.352.31h2.22c.228 0 .29-.103.29-.31v-8.504c-.02-.104-.104-.207-.207-.207m-1.224-3.9c-.892 0-1.597.706-1.597 1.597 0 .892.705 1.597 1.597 1.597a1.58 1.58 0 0 0 1.576-1.597 1.58 1.58 0 0 0-1.576-1.597m19.081-.29h-2.447a.186.186 0 0 0-.187.187v4.728h-3.837V9.5a.186.186 0 0 0-.187-.187h-2.468a.186.186 0 0 0-.186.187v12.859c0 .103.103.186.186.186h2.468a.186.186 0 0 0 .187-.186v-5.496h3.837l-.02 5.496c0 .103.082.186.186.186h2.468a.186.186 0 0 0 .187-.186V9.498a.186.186 0 0 0-.187-.186m-21.84 5.683v6.637c0 .041-.02.124-.062.145 0 0-1.452 1.037-3.837 1.037-2.862 0-6.284-.892-6.284-6.844 0-5.932 2.987-7.176 5.89-7.156 2.53 0 3.547.56 3.692.664.042.062.062.104.062.166l-.477 2.053c0 .104-.103.228-.228.187-.415-.125-1.037-.374-2.51-.374-1.7 0-3.525.478-3.525 4.314s1.742 4.273 2.986 4.273c1.058 0 1.452-.124 1.452-.124v-2.634h-1.7c-.125 0-.229-.083-.229-.187v-2.157c0-.104.083-.187.228-.187h4.335c.125 0 .208.083.208.187" fill="#fff"/></svg>