<svg xmlns="http://www.w3.org/2000/svg" width="162" height="32" viewBox="0 0 162 32"><rect width="162" height="32" fill="#161312" rx="4"/><path fill="#1B1F24" d="M32 0h1v32h-1z" /><path fill="#fff" fill-rule="evenodd" d="M16.16 7C11.095 7 7 11.125 7 16.228a9.22 9.22 0 0 0 6.263 8.754c.455.092.622-.198.622-.442 0-.214-.015-.948-.015-1.712-2.548.55-3.079-1.1-3.079-1.1-.41-1.07-1.016-1.344-1.016-1.344-.834-.565.06-.565.06-.565.926.06 1.411.947 1.411.947.82 1.405 2.139 1.008 2.67.764.075-.596.318-1.009.576-1.238-2.032-.214-4.17-1.008-4.17-4.553 0-1.008.363-1.833.94-2.475-.091-.229-.41-1.176.09-2.444 0 0 .774-.245 2.518.947a8.8 8.8 0 0 1 2.29-.306 8.8 8.8 0 0 1 2.29.306c1.744-1.192 2.518-.947 2.518-.947.5 1.268.181 2.215.09 2.444.592.642.94 1.467.94 2.475 0 3.545-2.137 4.324-4.185 4.553.334.29.622.84.622 1.711 0 1.238-.015 2.231-.015 2.536 0 .245.167.535.622.444a9.22 9.22 0 0 0 6.263-8.755C25.32 11.125 21.21 7 16.16 7" clip-rule="evenodd" /><path d="M108.266 14.806h-4.35a.203.203 0 0 0-.203.203v2.127c0 .112.09.204.203.204h1.697v2.642s-.381.13-1.435.13c-1.243 0-2.979-.454-2.979-4.272s1.808-4.321 3.505-4.321c1.47 0 2.103.258 2.505.383.127.039.244-.087.244-.2l.485-2.054a.19.19 0 0 0-.077-.16c-.164-.116-1.162-.674-3.683-.674-2.904 0-5.883 1.235-5.883 7.175s3.41 6.825 6.285 6.825c2.38 0 3.823-1.017 3.823-1.017.06-.033.066-.116.066-.154v-6.634a.203.203 0 0 0-.203-.203m22.419-5.28a.203.203 0 0 0-.202-.205h-2.45a.204.204 0 0 0-.202.205v4.733h-3.817V9.526a.203.203 0 0 0-.202-.205h-2.45a.204.204 0 0 0-.202.205v12.817c0 .113.09.205.202.205h2.45a.203.203 0 0 0 .202-.205V16.86h3.818l-.007 5.483c0 .113.09.205.203.205h2.455a.203.203 0 0 0 .202-.205zm-17.972 10.113v-5.916a.204.204 0 0 0-.203-.205h-2.441c-.112 0-.213.116-.213.228v8.477c0 .249.156.323.357.323h2.2c.24 0 .3-.119.3-.327zm27.281-6.101h-2.43a.204.204 0 0 0-.203.205v6.284s-.617.452-1.494.452c-.876 0-1.109-.398-1.109-1.256v-5.48a.204.204 0 0 0-.202-.205h-2.467a.204.204 0 0 0-.202.205v5.895c0 2.55 1.42 3.173 3.375 3.173 1.603 0 2.896-.886 2.896-.886s.061.467.09.522c.027.055.1.111.178.111l1.57-.007a.204.204 0 0 0 .202-.205l-.001-8.603a.204.204 0 0 0-.203-.205m5.685 6.933c-.843-.025-1.415-.408-1.415-.408v-4.059s.564-.346 1.256-.408c.875-.078 1.719.186 1.719 2.275 0 2.201-.38 2.636-1.56 2.6m.959-7.221c-1.381 0-2.32.616-2.32.616v-4.34a.203.203 0 0 0-.202-.205h-2.457a.203.203 0 0 0-.202.205v12.817c0 .113.09.205.203.205h1.704c.077 0 .135-.04.178-.109s.103-.591.103-.591 1.005.952 2.906.952c2.233 0 3.513-1.132 3.513-5.083s-2.045-4.467-3.426-4.467m-26.885.267h-1.838l-.004-2.427c0-.092-.047-.138-.153-.138h-2.504c-.097 0-.15.043-.15.136v2.509s-1.254.303-1.34.327a.204.204 0 0 0-.146.195v1.577c0 .113.09.205.203.205h1.283v3.792c0 2.816 1.976 3.093 3.31 3.093.608 0 1.337-.196 1.457-.24.073-.027.115-.102.115-.184l.003-1.734a.207.207 0 0 0-.203-.205c-.107 0-.38.044-.663.044-.902 0-1.208-.42-1.208-.963v-3.603h1.837a.204.204 0 0 0 .203-.205V13.72a.203.203 0 0 0-.203-.204" fill="#fff"/><path d="M47.456 21.664 44 10h1.744l2.24 7.968.528 2.112h.096l.512-2.096L51.392 10h1.728l-3.44 11.664Zm6.784 0v-8.448h1.568v8.448zm0-9.696V10h1.568v1.968Zm6.496 9.856q-1.104 0-1.872-.528-.752-.528-1.136-1.504t-.384-2.336q0-1.376.368-2.352.384-.976 1.136-1.504t1.856-.528q1.184 0 1.92.592.736.576 1.056 1.616t.24 2.448h-5.024q0 1.024.224 1.664.224.624.64.912t.976.288q.72 0 1.12-.4.416-.416.544-1.136h1.504q-.096.928-.528 1.552-.432.608-1.12.912-.672.304-1.52.304m-1.84-4.928-.16-.224h3.808l-.16.24q.016-.976-.208-1.552-.208-.576-.592-.816-.384-.256-.88-.256-.544 0-.944.272-.384.256-.608.832t-.256 1.504m7.381 4.768-1.776-8.448h1.504l1.344 6.96h.064l1.28-6.96h1.776l1.36 6.976h.064l1.312-6.976h1.488l-1.824 8.448h-1.984l-1.28-6.544h-.08l-1.216 6.544zm16.032.144q-.832 0-1.488-.288t-1.104-.848q-.448-.576-.688-1.376-.24-.816-.24-1.856 0-1.344.4-2.32.4-.992 1.184-1.52.8-.528 1.936-.528.832 0 1.472.288.656.288 1.104.864.448.56.688 1.376.24.8.24 1.84 0 1.344-.4 2.336-.4.976-1.184 1.504t-1.92.528m-.016-1.296q.592 0 1.024-.32t.656-.992q.24-.688.24-1.76 0-.8-.128-1.376-.128-.592-.384-.96-.24-.384-.592-.56t-.8-.176q-.592 0-1.024.32t-.672.992-.24 1.776q0 .8.128 1.376.144.576.384.96.256.368.608.544.368.176.8.176m5.04 1.152v-8.448h1.52l.064 1.472h.08q.304-.8.944-1.2.656-.416 1.472-.416.56 0 1.024.192.48.176.816.56t.512 1.008q.176.608.176 1.488v5.344h-1.584v-5.088q0-.8-.176-1.28-.16-.48-.512-.704-.336-.224-.864-.224-.608 0-1.04.336-.416.32-.64.88-.208.56-.208 1.28v4.8z" fill="#fff"/></svg>