<svg xmlns="http://www.w3.org/2000/svg" width="162" height="32" viewBox="0 0 162 32"><title>View on Github</title><rect width="162" height="32" fill="#161312" rx="4" style="stroke:#fff;stroke-opacity:0.4;stroke-linejoin:round"/><path fill="#1b1f24" d="M32 1h1v30h-1z"/><path fill="#fff" fill-rule="evenodd" d="M16.16 7C11.095 7 7 11.125 7 16.228a9.22 9.22 0 0 0 6.263 8.754c.455.092.622-.198.622-.442 0-.214-.015-.948-.015-1.712-2.548.55-3.079-1.1-3.079-1.1-.41-1.07-1.016-1.344-1.016-1.344-.834-.565.06-.565.06-.565.926.06 1.411.947 1.411.947.82 1.405 2.139 1.008 2.67.764.075-.596.318-1.009.576-1.238-2.032-.214-4.17-1.008-4.17-4.553 0-1.008.363-1.833.94-2.475-.091-.229-.41-1.176.09-2.444 0 0 .774-.245 2.518.947a8.8 8.8 0 0 1 2.29-.306 8.8 8.8 0 0 1 2.29.306c1.744-1.192 2.518-.947 2.518-.947.5 1.268.181 2.215.09 2.444.592.642.94 1.467.94 2.475 0 3.545-2.137 4.324-4.185 4.553.334.29.622.84.622 1.711 0 1.238-.015 2.231-.015 2.536 0 .245.167.535.622.444a9.22 9.22 0 0 0 6.263-8.755C25.32 11.125 21.21 7 16.16 7" clip-rule="evenodd"/><path fill="#fff" d="M49.215 22.101 46 11.25h1.622l2.084 7.413.492 1.965h.089l.476-1.95 2.114-7.428h1.607l-3.2 10.851zm6.311 0v-7.86h1.46v7.86zm0-9.02V11.25h1.46v1.83zm6.044 9.169q-1.027 0-1.742-.491-.7-.491-1.057-1.4-.357-.907-.357-2.173 0-1.28.342-2.188.358-.908 1.057-1.399.7-.491 1.727-.491 1.101 0 1.786.55.685.537.983 1.504.297.968.223 2.277h-4.674q0 .953.208 1.548.209.581.596.849t.908.268q.67 0 1.042-.372.387-.387.506-1.057h1.399q-.09.863-.491 1.444-.402.565-1.042.848-.625.283-1.414.283m-1.712-4.585-.149-.208h3.543l-.15.223q.016-.908-.193-1.444-.193-.535-.55-.759-.358-.238-.82-.238-.505 0-.877.253-.358.238-.566.774t-.238 1.4m6.867 4.435-1.653-7.86h1.4l1.25 6.476h.06l1.19-6.475h1.652l1.266 6.49h.06l1.22-6.49h1.384l-1.697 7.86h-1.846l-1.19-6.089h-.075l-1.131 6.088zm14.914.134q-.774 0-1.384-.268t-1.027-.789q-.417-.536-.64-1.28-.223-.759-.223-1.726 0-1.25.372-2.159.372-.923 1.101-1.414.744-.491 1.801-.491.774 0 1.37.268.61.268 1.027.804.417.52.64 1.28.223.744.223 1.712 0 1.25-.372 2.173-.372.908-1.102 1.399-.729.491-1.786.491m-.015-1.206q.551 0 .953-.297.402-.298.61-.923.224-.64.224-1.637 0-.745-.12-1.28-.119-.551-.357-.894-.223-.357-.55-.52t-.745-.164q-.55 0-.952.297-.402.298-.626.923t-.223 1.652q0 .745.12 1.28.133.536.357.894.238.342.565.506.343.163.744.163m4.69 1.072v-7.86h1.413l.06 1.37h.074q.283-.744.878-1.116.61-.387 1.37-.387.52 0 .952.179.447.163.76.52.312.358.476.938.164.566.164 1.385v4.97h-1.474v-4.733q0-.745-.164-1.191-.149-.447-.476-.655-.313-.208-.804-.208-.565 0-.967.312-.387.298-.596.819-.193.52-.193 1.19V22.1z"/><path fill="#fff" d="M114.299 20.51h-.016s0 .015.016 0m0 .015c-.081 0-.293.05-.521.05-.718 0-.962-.326-.962-.75v-2.852h1.45c.082 0 .147-.065.147-.179v-1.548a.146.146 0 0 0-.147-.147h-1.45v-1.922c0-.066-.049-.114-.13-.114h-1.956c-.08 0-.13.048-.13.114v1.972l-1.06.26a.16.16 0 0 0-.113.147v1.238c0 .098.065.18.146.18h1.01v2.982c0 2.215 1.549 2.444 2.608 2.444.489 0 1.059-.147 1.157-.196.049-.015.081-.081.081-.147V20.69a.17.17 0 0 0-.13-.163m21.528-2.003c0-1.646-.668-1.859-1.37-1.793a2.3 2.3 0 0 0-.977.31v3.194s.44.31 1.108.325c.945.033 1.239-.293 1.239-2.036m2.216-.147c0 3.113-1.01 4.008-2.77 4.008-1.483 0-2.298-.75-2.298-.75s-.033.425-.082.474c-.032.048-.065.065-.13.065h-1.353c-.098 0-.179-.065-.179-.147l.016-10.104c0-.081.065-.146.147-.146h1.939c.082 0 .147.065.147.147l-.016 3.406s.749-.49 1.841-.49h.016c1.108.017 2.722.424 2.722 3.537m-7.92-3.276h-1.906c-.099 0-.147.065-.147.18v4.937s-.506.359-1.19.359-.88-.31-.88-.994v-4.32a.146.146 0 0 0-.147-.146h-1.939a.146.146 0 0 0-.146.147v4.643c0 2.005 1.123 2.494 2.656 2.494 1.27 0 2.298-.7 2.298-.7s.049.357.065.407.081.08.146.08h1.223c.097 0 .147-.064.147-.145l.015-6.796c-.032-.082-.097-.147-.195-.147m-21.542-.015h-1.94c-.081 0-.147.08-.147.179v6.665c0 .179.114.243.277.243h1.744c.18 0 .228-.08.228-.243v-6.682c-.016-.082-.082-.162-.162-.162m-.962-3.065c-.701 0-1.255.555-1.255 1.255s.554 1.255 1.255 1.255a1.24 1.24 0 0 0 1.238-1.255 1.24 1.24 0 0 0-1.238-1.255m14.992-.228h-1.923a.146.146 0 0 0-.147.147v3.715h-3.015V11.94a.146.146 0 0 0-.147-.147h-1.939a.146.146 0 0 0-.146.147v10.104c0 .08.081.146.146.146h1.94a.146.146 0 0 0 .146-.146v-4.319h3.015l-.016 4.318c0 .081.065.147.146.147h1.94a.146.146 0 0 0 .146-.146V11.938a.146.146 0 0 0-.146-.147m-17.16 4.466v5.214c0 .033-.016.098-.049.114 0 0-1.14.815-3.015.815-2.248 0-4.937-.7-4.937-5.377 0-4.661 2.347-5.639 4.628-5.623 1.988 0 2.787.44 2.9.522.034.049.05.082.05.13l-.375 1.613c0 .082-.081.18-.18.147-.326-.098-.814-.294-1.972-.294-1.335 0-2.77.376-2.77 3.39s1.37 3.357 2.347 3.357c.831 0 1.14-.097 1.14-.097v-2.07h-1.335c-.098 0-.18-.065-.18-.147v-1.694c0-.082.065-.147.18-.147h3.405c.098 0 .164.065.164.147"/></svg>