<svg width="137" height="32" viewBox="0 0 137 32" fill="none" xmlns="http://www.w3.org/2000/svg">
  <path
    d="M102.288 24C101.888 24 101.528 23.92 101.208 23.76C100.888 23.584 100.728 23.328 100.728 22.992V9.264H97.2C96.896 9.264 96.656 9.12 96.48 8.832C96.304 8.544 96.216 8.216 96.216 7.848C96.216 7.512 96.296 7.2 96.456 6.912C96.616 6.608 96.864 6.456 97.2 6.456H107.352C107.704 6.456 107.952 6.608 108.096 6.912C108.256 7.2 108.336 7.512 108.336 7.848C108.336 8.216 108.248 8.544 108.072 8.832C107.912 9.12 107.672 9.264 107.352 9.264H103.848V22.992C103.848 23.328 103.68 23.584 103.344 23.76C103.024 23.92 102.672 24 102.288 24ZM111.228 10.056C110.764 10.056 110.364 9.904 110.028 9.6C109.692 9.28 109.524 8.928 109.524 8.544C109.524 8.128 109.692 7.776 110.028 7.488C110.364 7.184 110.764 7.032 111.228 7.032C111.708 7.032 112.108 7.184 112.428 7.488C112.748 7.776 112.908 8.128 112.908 8.544C112.908 8.928 112.748 9.28 112.428 9.6C112.108 9.904 111.708 10.056 111.228 10.056ZM111.228 24C110.78 24 110.412 23.896 110.124 23.688C109.836 23.48 109.692 23.248 109.692 22.992V13.56C109.692 13.272 109.836 13.04 110.124 12.864C110.412 12.688 110.78 12.6 111.228 12.6C111.66 12.6 112.028 12.688 112.332 12.864C112.636 13.04 112.788 13.272 112.788 13.56V22.992C112.788 23.248 112.636 23.48 112.332 23.688C112.028 23.896 111.66 24 111.228 24ZM116.689 29.304C116.257 29.304 115.897 29.2 115.609 28.992C115.321 28.784 115.177 28.56 115.177 28.32V13.56C115.177 13.272 115.321 13.04 115.609 12.864C115.897 12.688 116.249 12.6 116.665 12.6C117.081 12.6 117.417 12.688 117.673 12.864C117.945 13.04 118.081 13.272 118.081 13.56V14.28C118.353 13.816 118.769 13.4 119.329 13.032C119.889 12.648 120.553 12.456 121.321 12.456C122.137 12.456 122.865 12.68 123.505 13.128C124.161 13.56 124.673 14.144 125.041 14.88C125.425 15.616 125.617 16.432 125.617 17.328V19.296C125.617 20.144 125.425 20.944 125.041 21.696C124.657 22.448 124.145 23.056 123.505 23.52C122.881 23.984 122.185 24.216 121.417 24.216C120.713 24.216 120.073 24.024 119.497 23.64C118.921 23.256 118.513 22.816 118.273 22.32V28.32C118.273 28.56 118.121 28.784 117.817 28.992C117.513 29.2 117.137 29.304 116.689 29.304ZM120.409 21.504C120.793 21.504 121.137 21.4 121.441 21.192C121.761 20.968 122.017 20.688 122.209 20.352C122.417 20.016 122.521 19.664 122.521 19.296V17.328C122.521 16.96 122.425 16.616 122.233 16.296C122.041 15.976 121.777 15.712 121.441 15.504C121.121 15.28 120.761 15.168 120.361 15.168C120.009 15.168 119.673 15.256 119.353 15.432C119.049 15.608 118.793 15.856 118.585 16.176C118.377 16.496 118.273 16.88 118.273 17.328V19.728C118.273 19.888 118.361 20.112 118.537 20.4C118.729 20.672 118.985 20.928 119.305 21.168C119.625 21.392 119.993 21.504 120.409 21.504ZM131.318 24.216C130.518 24.216 129.782 24.12 129.11 23.928C128.454 23.72 127.934 23.456 127.55 23.136C127.182 22.816 126.998 22.488 126.998 22.152C126.998 21.976 127.038 21.784 127.118 21.576C127.214 21.368 127.334 21.184 127.478 21.024C127.638 20.864 127.822 20.784 128.03 20.784C128.254 20.784 128.486 20.88 128.726 21.072C128.982 21.248 129.294 21.424 129.662 21.6C130.046 21.776 130.574 21.864 131.246 21.864C131.966 21.864 132.438 21.752 132.662 21.528C132.902 21.304 133.022 21.072 133.022 20.832C133.022 20.48 132.878 20.208 132.59 20.016C132.318 19.824 131.966 19.672 131.534 19.56C131.102 19.432 130.638 19.296 130.142 19.152C129.662 19.008 129.206 18.824 128.774 18.6C128.342 18.36 127.99 18.04 127.718 17.64C127.446 17.224 127.31 16.688 127.31 16.032C127.31 15.456 127.446 14.896 127.718 14.352C127.99 13.808 128.438 13.36 129.062 13.008C129.686 12.64 130.534 12.456 131.606 12.456C132.262 12.456 132.878 12.528 133.454 12.672C134.046 12.8 134.526 12.984 134.894 13.224C135.262 13.464 135.446 13.728 135.446 14.016C135.446 14.16 135.398 14.352 135.302 14.592C135.206 14.816 135.07 15.024 134.894 15.216C134.734 15.408 134.534 15.504 134.294 15.504C134.118 15.504 133.902 15.448 133.646 15.336C133.406 15.208 133.126 15.088 132.806 14.976C132.486 14.864 132.102 14.808 131.654 14.808C131.254 14.808 130.934 14.864 130.694 14.976C130.454 15.088 130.278 15.224 130.166 15.384C130.054 15.544 129.998 15.712 129.998 15.888C129.998 16.176 130.134 16.4 130.406 16.56C130.678 16.72 131.03 16.856 131.462 16.968C131.91 17.08 132.374 17.208 132.854 17.352C133.35 17.48 133.814 17.672 134.246 17.928C134.694 18.184 135.054 18.536 135.326 18.984C135.598 19.416 135.734 19.984 135.734 20.688C135.734 21.76 135.35 22.616 134.582 23.256C133.83 23.896 132.742 24.216 131.318 24.216Z"
    fill="#4B0C2B" />
  <path
    d="M41.184 24C40.896 24 40.6 23.944 40.296 23.832C39.992 23.72 39.736 23.568 39.528 23.376C39.32 23.184 39.216 22.96 39.216 22.704C39.216 22.656 39.224 22.576 39.24 22.464L43.872 7.368C43.984 7.016 44.232 6.752 44.616 6.576C45.016 6.4 45.44 6.312 45.888 6.312C46.352 6.312 46.776 6.4 47.16 6.576C47.544 6.752 47.792 7.016 47.904 7.368L52.536 22.464C52.568 22.576 52.584 22.656 52.584 22.704C52.584 22.944 52.472 23.168 52.248 23.376C52.04 23.568 51.784 23.72 51.48 23.832C51.176 23.944 50.88 24 50.592 24C50.336 24 50.112 23.96 49.92 23.88C49.744 23.784 49.624 23.616 49.56 23.376L48.648 20.184H43.128L42.24 23.376C42.176 23.616 42.048 23.784 41.856 23.88C41.664 23.96 41.44 24 41.184 24ZM43.8 17.736H47.976L45.888 10.368L43.8 17.736ZM57.7013 24.216C56.9013 24.216 56.1653 24.12 55.4933 23.928C54.8373 23.72 54.3173 23.456 53.9333 23.136C53.5653 22.816 53.3813 22.488 53.3813 22.152C53.3813 21.976 53.4213 21.784 53.5013 21.576C53.5973 21.368 53.7173 21.184 53.8613 21.024C54.0213 20.864 54.2053 20.784 54.4133 20.784C54.6373 20.784 54.8693 20.88 55.1093 21.072C55.3653 21.248 55.6773 21.424 56.0453 21.6C56.4293 21.776 56.9573 21.864 57.6293 21.864C58.3493 21.864 58.8213 21.752 59.0453 21.528C59.2853 21.304 59.4053 21.072 59.4053 20.832C59.4053 20.48 59.2613 20.208 58.9733 20.016C58.7013 19.824 58.3493 19.672 57.9173 19.56C57.4853 19.432 57.0213 19.296 56.5253 19.152C56.0453 19.008 55.5893 18.824 55.1573 18.6C54.7253 18.36 54.3733 18.04 54.1013 17.64C53.8293 17.224 53.6933 16.688 53.6933 16.032C53.6933 15.456 53.8293 14.896 54.1013 14.352C54.3733 13.808 54.8213 13.36 55.4453 13.008C56.0693 12.64 56.9173 12.456 57.9893 12.456C58.6453 12.456 59.2613 12.528 59.8372 12.672C60.4293 12.8 60.9093 12.984 61.2773 13.224C61.6453 13.464 61.8293 13.728 61.8293 14.016C61.8293 14.16 61.7813 14.352 61.6853 14.592C61.5893 14.816 61.4533 15.024 61.2773 15.216C61.1173 15.408 60.9173 15.504 60.6773 15.504C60.5013 15.504 60.2853 15.448 60.0293 15.336C59.7893 15.208 59.5093 15.088 59.1893 14.976C58.8693 14.864 58.4853 14.808 58.0373 14.808C57.6373 14.808 57.3173 14.864 57.0773 14.976C56.8373 15.088 56.6613 15.224 56.5493 15.384C56.4373 15.544 56.3813 15.712 56.3813 15.888C56.3813 16.176 56.5173 16.4 56.7893 16.56C57.0613 16.72 57.4133 16.856 57.8453 16.968C58.2933 17.08 58.7573 17.208 59.2373 17.352C59.7333 17.48 60.1973 17.672 60.6293 17.928C61.0773 18.184 61.4373 18.536 61.7093 18.984C61.9813 19.416 62.1173 19.984 62.1173 20.688C62.1173 21.76 61.7333 22.616 60.9653 23.256C60.2133 23.896 59.1253 24.216 57.7013 24.216ZM68.3811 24C66.9411 24 65.8371 23.688 65.0691 23.064C64.3171 22.44 63.9411 21.448 63.9411 20.088V8.472C63.9411 8.184 64.1091 7.952 64.4451 7.776C64.7811 7.6 65.1251 7.512 65.4771 7.512C65.8611 7.512 66.2131 7.6 66.5331 7.776C66.8691 7.952 67.0371 8.184 67.0371 8.472V12.6H69.8691C70.1251 12.6 70.3171 12.72 70.4451 12.96C70.5891 13.184 70.6611 13.44 70.6611 13.728C70.6611 14.016 70.5891 14.28 70.4451 14.52C70.3171 14.744 70.1251 14.856 69.8691 14.856H67.0371V20.088C67.0371 20.568 67.1331 20.904 67.3251 21.096C67.5331 21.288 67.8851 21.384 68.3811 21.384H69.3171C69.7651 21.384 70.0931 21.52 70.3011 21.792C70.5251 22.064 70.6371 22.36 70.6371 22.68C70.6371 23.016 70.5251 23.32 70.3011 23.592C70.0931 23.864 69.7651 24 69.3171 24H68.3811ZM73.7511 24C73.3191 24 72.9591 23.896 72.6711 23.688C72.3831 23.48 72.2391 23.248 72.2391 22.992V13.56C72.2391 13.272 72.3831 13.04 72.6711 12.864C72.9591 12.688 73.3191 12.6 73.7511 12.6C74.1511 12.6 74.4791 12.688 74.7351 12.864C75.0071 13.04 75.1431 13.272 75.1431 13.56V14.544C75.3191 14.192 75.5511 13.864 75.8391 13.56C76.1431 13.24 76.4871 12.976 76.8711 12.768C77.2551 12.56 77.6631 12.456 78.0951 12.456H78.8391C79.1431 12.456 79.4071 12.592 79.6311 12.864C79.8551 13.12 79.9671 13.432 79.9671 13.8C79.9671 14.184 79.8551 14.512 79.6311 14.784C79.4071 15.04 79.1431 15.168 78.8391 15.168H78.0951C77.6471 15.168 77.2071 15.32 76.7751 15.624C76.3591 15.912 76.0151 16.32 75.7431 16.848C75.4711 17.36 75.3351 17.984 75.3351 18.72V22.992C75.3351 23.248 75.1831 23.48 74.8791 23.688C74.5751 23.896 74.1991 24 73.7511 24ZM85.7098 24.216C84.7818 24.216 83.9258 23.992 83.1418 23.544C82.3578 23.08 81.7258 22.472 81.2458 21.72C80.7658 20.968 80.5258 20.16 80.5258 19.296V17.328C80.5258 16.464 80.7578 15.664 81.2218 14.928C81.6858 14.176 82.3098 13.576 83.0938 13.128C83.8938 12.68 84.7658 12.456 85.7098 12.456C86.6538 12.456 87.5178 12.68 88.3018 13.128C89.1018 13.56 89.7338 14.144 90.1978 14.88C90.6778 15.616 90.9178 16.432 90.9178 17.328V19.296C90.9178 20.144 90.6778 20.944 90.1978 21.696C89.7178 22.448 89.0778 23.056 88.2778 23.52C87.4938 23.984 86.6378 24.216 85.7098 24.216ZM85.7098 21.504C86.0938 21.504 86.4458 21.4 86.7658 21.192C87.0858 20.984 87.3418 20.712 87.5338 20.376C87.7258 20.024 87.8218 19.664 87.8218 19.296V17.328C87.8218 16.96 87.7258 16.616 87.5338 16.296C87.3418 15.976 87.0858 15.712 86.7658 15.504C86.4618 15.28 86.1098 15.168 85.7098 15.168C85.3258 15.168 84.9738 15.272 84.6538 15.48C84.3338 15.688 84.0778 15.96 83.8858 16.296C83.7098 16.616 83.6218 16.96 83.6218 17.328V19.296C83.6218 19.664 83.7098 20.024 83.8858 20.376C84.0778 20.712 84.3338 20.984 84.6538 21.192C84.9738 21.4 85.3258 21.504 85.7098 21.504Z"
    fill="#E34F99" />
  <path fill-rule="evenodd" clip-rule="evenodd"
    d="M24.83 14.0483C26.481 16.996 25.5886 18.0585 25.4947 18.3411C25.3367 18.818 25.3711 19.3172 25.5979 19.8396C25.9836 20.8491 25.926 21.5853 25.4222 22.0482C24.844 22.4582 24.3132 22.4229 23.827 21.9432C23.3827 21.4542 23.3474 20.7738 23.722 19.9009C24.4359 17.1931 23.5138 16.1464 21.7634 15.4511C20.5215 14.9575 18.8231 14.6237 17.3302 14.291C15.3558 13.8503 13.0542 13.0416 11.0872 11.8899C4.50772 8.03772 6.70337 4.69869 11.7946 6.07353C9.1844 5.89598 8.27528 6.36728 8.04939 7.00031C7.6943 7.99682 10.1288 10.054 14.1892 11.3898C18.5731 12.7246 23.0573 13.247 24.8347 15.9586C24.7315 15.5273 24.5735 15.1369 24.3625 14.7808C24.5326 14.5457 24.6878 14.3021 24.83 14.0483Z"
    fill="#F075B5" />
  <path fill-rule="evenodd" clip-rule="evenodd"
    d="M16.4924 4.51613C16.6942 4.51613 16.8587 4.67974 16.8587 4.88239C16.8587 5.0841 16.6951 5.24864 16.4924 5.24864C16.2907 5.24864 16.1262 5.08503 16.1262 4.88239C16.1271 4.67974 16.2907 4.51613 16.4924 4.51613ZM21.6423 8.87676C21.9992 8.87676 22.2893 9.16679 22.2893 9.52374C22.2893 9.88163 21.9992 10.1707 21.6423 10.1707C21.2853 10.1707 20.9953 9.8807 20.9953 9.52374C20.9944 9.16679 21.2844 8.87676 21.6423 8.87676ZM19.9254 5.30348C20.485 5.30348 20.9386 5.75711 20.9386 6.31672C20.9386 6.87632 20.485 7.32995 19.9254 7.32995C19.3658 7.32995 18.9121 6.87632 18.9121 6.31672C18.9121 5.75711 19.3658 5.30348 19.9254 5.30348ZM17.027 6.90793C17.4155 6.90793 17.7306 7.22305 17.7306 7.61161C17.7306 8.00017 17.4155 8.3153 17.027 8.3153C16.6384 8.3153 16.3233 8.00017 16.3233 7.61161C16.3233 7.22305 16.6393 6.90793 17.027 6.90793ZM10.9531 8.82656C11.6168 5.50334 14.5506 3 18.069 3C22.0764 3 25.3252 6.24886 25.3252 10.2562C25.3252 11.2713 25.117 12.2372 24.7406 13.1147C24.5546 13.5479 24.3278 13.9587 24.0657 14.3436C22.8219 12.7549 20.3437 11.9351 16.8448 11.2435C14.3805 10.7554 12.4367 10.0638 10.9531 8.82656Z"
    fill="#C43A80" />
  <path fill-rule="evenodd" clip-rule="evenodd"
    d="M21.6425 8.87682C21.9995 8.87682 22.2895 9.16685 22.2895 9.5238C22.2895 9.88169 21.9995 10.1708 21.6425 10.1708C21.2856 10.1708 20.9956 9.88076 20.9956 9.5238C20.9946 9.16685 21.2847 8.87682 21.6425 8.87682ZM19.9256 5.30354C20.4852 5.30354 20.9389 5.75717 20.9389 6.31678C20.9389 6.87638 20.4852 7.33001 19.9256 7.33001C19.366 7.33001 18.9124 6.87638 18.9124 6.31678C18.9124 5.75717 19.366 5.30354 19.9256 5.30354ZM20.1106 3.29102C23.1243 4.17318 25.3246 6.95725 25.3246 10.2554C25.3246 11.2705 25.1164 12.2363 24.7399 13.1138C24.554 13.547 24.3272 13.9579 24.065 14.3427C23.1866 13.2216 21.6937 12.4826 19.6607 11.9026C19.5296 11.382 19.3465 10.8577 19.1122 10.3325C17.901 7.61911 18.2226 5.27751 20.1106 3.29102Z"
    fill="#DA579B" />
  <path fill-rule="evenodd" clip-rule="evenodd"
    d="M10.9531 8.82639C11.3807 6.68652 12.75 4.88593 14.611 3.87549C13.8608 5.97446 14.2392 8.11341 15.9933 10.0869C16.3326 10.4689 16.6337 10.8575 16.8959 11.2526L16.8457 11.2424C14.3805 10.7553 12.4367 10.0637 10.9531 8.82639Z"
    fill="#AE1C66" />
  <path fill-rule="evenodd" clip-rule="evenodd"
    d="M21.8945 16.4227C20.7837 17.1134 19.473 17.5122 18.0684 17.5122C15.0287 17.5122 12.4259 15.6428 11.3457 12.9907C12.1172 13.3997 12.926 13.7613 13.7384 14.0737C14.905 14.5217 16.0754 14.8685 17.1518 15.1092C17.9531 15.2886 17.7653 15.2468 17.8248 15.2598C19.1114 15.5415 20.475 15.8399 21.4567 16.2303C21.611 16.2907 21.7579 16.3548 21.8945 16.4227Z"
    fill="#C43A80" />
  <path fill-rule="evenodd" clip-rule="evenodd"
    d="M21.8943 16.4224C21.0521 16.9457 20.0946 17.3018 19.0684 17.444C19.3463 16.863 19.5555 16.2783 19.6958 15.689C20.3419 15.8516 20.9498 16.0283 21.4555 16.229C21.6107 16.2904 21.7576 16.3545 21.8943 16.4224Z"
    fill="#DA579B" />
  <path fill-rule="evenodd" clip-rule="evenodd"
    d="M17.7969 17.507C14.8744 17.3992 12.3933 15.5633 11.3457 12.9902C12.1172 13.3992 12.926 13.7608 13.7384 14.0732C14.905 14.5212 16.0754 14.868 17.1518 15.1087C17.9531 15.2881 17.7653 15.2463 17.8248 15.2593L18.1455 15.33C18.1334 16.0271 18.0191 16.7513 17.7969 17.507Z"
    fill="#AE1C66" />
  <path
    d="M10.8887 13.8901L11.0049 27.3569C11.0293 28.2963 11.6358 28.8934 12.3383 28.9901C14.5621 26.5821 16.7118 20.8812 17.5087 18.3317C14.607 18.1131 12.1326 16.364 10.8887 13.8901Z"
    fill="#E0985E" />
  <path
    d="M18.125 18.3547C17.9175 18.3547 17.7119 18.3469 17.5083 18.3315C16.7114 20.881 14.5617 26.5819 12.3379 28.9899C12.4998 29.0121 12.6667 29.0078 12.8328 28.975C13.8526 28.1552 17.0746 21.5456 18.5582 18.3433C18.4147 18.3509 18.2703 18.3547 18.125 18.3547Z"
    fill="#EEB07C" />
  <path
    d="M13.8807 28.2909L21.9364 17.4019C20.9203 17.9457 19.7755 18.279 18.5593 18.3433C17.0758 21.5456 13.8537 28.1552 12.834 28.975C13.2103 28.9007 13.5823 28.6802 13.8807 28.2909Z"
    fill="#FCC89A" />
</svg>