<svg width="155" height="32" viewBox="0 0 155 32" fill="none" xmlns="http://www.w3.org/2000/svg">
  <path
    d="M116.288 24C115.888 24 115.528 23.92 115.208 23.76C114.888 23.584 114.728 23.328 114.728 22.992V9.264H111.2C110.896 9.264 110.656 9.12 110.48 8.832C110.304 8.544 110.216 8.216 110.216 7.848C110.216 7.512 110.296 7.2 110.456 6.912C110.616 6.608 110.864 6.456 111.2 6.456H121.352C121.704 6.456 121.952 6.608 122.096 6.912C122.256 7.2 122.336 7.512 122.336 7.848C122.336 8.216 122.248 8.544 122.072 8.832C121.912 9.12 121.672 9.264 121.352 9.264H117.848V22.992C117.848 23.328 117.68 23.584 117.344 23.76C117.024 23.92 116.672 24 116.288 24ZM125.562 24C125.179 24 124.819 23.92 124.483 23.76C124.163 23.584 124.003 23.328 124.003 22.992V7.44C124.003 7.088 124.163 6.84 124.483 6.696C124.819 6.536 125.179 6.456 125.562 6.456C125.963 6.456 126.323 6.536 126.643 6.696C126.963 6.84 127.123 7.088 127.123 7.44V22.992C127.123 23.328 126.963 23.584 126.643 23.76C126.323 23.92 125.963 24 125.562 24ZM131.586 24C131.202 24 130.842 23.92 130.506 23.76C130.186 23.584 130.026 23.328 130.026 22.992V7.44C130.026 7.168 130.138 6.936 130.362 6.744C130.586 6.552 130.874 6.456 131.226 6.456H136.026C137.05 6.456 137.97 6.632 138.786 6.984C139.618 7.336 140.274 7.912 140.754 8.712C141.234 9.496 141.474 10.544 141.474 11.856V12C141.474 13.312 141.226 14.368 140.73 15.168C140.234 15.968 139.554 16.552 138.69 16.92C137.842 17.272 136.89 17.448 135.834 17.448H133.146V22.992C133.146 23.328 132.986 23.584 132.666 23.76C132.346 23.92 131.986 24 131.586 24ZM133.146 15H135.834C136.634 15 137.25 14.776 137.682 14.328C138.13 13.864 138.354 13.168 138.354 12.24V11.976C138.354 11.032 138.13 10.336 137.682 9.888C137.25 9.424 136.634 9.192 135.834 9.192H133.146V15ZM148.065 24.216C147.025 24.216 146.081 24.064 145.233 23.76C144.401 23.456 143.737 23.08 143.241 22.632C142.761 22.168 142.521 21.704 142.521 21.24C142.521 21.016 142.577 20.776 142.689 20.52C142.817 20.248 142.985 20.024 143.193 19.848C143.401 19.656 143.633 19.56 143.889 19.56C144.145 19.56 144.385 19.656 144.609 19.848C144.833 20.024 145.089 20.24 145.377 20.496C145.665 20.736 146.017 20.952 146.433 21.144C146.849 21.32 147.361 21.408 147.969 21.408C148.449 21.408 148.889 21.336 149.289 21.192C149.705 21.032 150.033 20.8 150.273 20.496C150.529 20.192 150.657 19.8 150.657 19.32C150.657 18.808 150.521 18.376 150.249 18.024C149.977 17.672 149.609 17.368 149.145 17.112C148.681 16.856 148.177 16.608 147.633 16.368C147.089 16.128 146.537 15.872 145.977 15.6C145.433 15.328 144.929 15 144.465 14.616C144.017 14.232 143.649 13.76 143.361 13.2C143.089 12.64 142.953 11.952 142.953 11.136C142.953 10.24 143.121 9.488 143.457 8.88C143.809 8.272 144.265 7.784 144.825 7.416C145.401 7.032 146.033 6.76 146.721 6.6C147.409 6.424 148.097 6.336 148.785 6.336C149.153 6.336 149.585 6.368 150.081 6.432C150.593 6.48 151.097 6.576 151.593 6.72C152.105 6.864 152.521 7.064 152.841 7.32C153.177 7.56 153.345 7.88 153.345 8.28C153.345 8.456 153.297 8.672 153.201 8.928C153.121 9.184 152.985 9.416 152.793 9.624C152.617 9.832 152.385 9.936 152.097 9.936C151.841 9.936 151.585 9.864 151.329 9.72C151.089 9.56 150.769 9.408 150.369 9.264C149.985 9.104 149.457 9.024 148.785 9.024C148.225 9.024 147.737 9.096 147.321 9.24C146.905 9.384 146.593 9.592 146.385 9.864C146.177 10.12 146.073 10.448 146.073 10.848C146.073 11.264 146.209 11.616 146.481 11.904C146.769 12.192 147.137 12.448 147.585 12.672C148.049 12.896 148.553 13.12 149.097 13.344C149.641 13.568 150.185 13.832 150.729 14.136C151.289 14.424 151.801 14.776 152.265 15.192C152.729 15.608 153.097 16.128 153.369 16.752C153.641 17.36 153.777 18.112 153.777 19.008C153.777 20.144 153.529 21.104 153.033 21.888C152.537 22.656 151.857 23.24 150.993 23.64C150.145 24.024 149.169 24.216 148.065 24.216Z"
    fill="#4B0C2B" />
  <path
    d="M41.184 24C40.896 24 40.6 23.944 40.296 23.832C39.992 23.72 39.736 23.568 39.528 23.376C39.32 23.184 39.216 22.96 39.216 22.704C39.216 22.656 39.224 22.576 39.24 22.464L43.872 7.368C43.984 7.016 44.232 6.752 44.616 6.576C45.016 6.4 45.44 6.312 45.888 6.312C46.352 6.312 46.776 6.4 47.16 6.576C47.544 6.752 47.792 7.016 47.904 7.368L52.536 22.464C52.568 22.576 52.584 22.656 52.584 22.704C52.584 22.944 52.472 23.168 52.248 23.376C52.04 23.568 51.784 23.72 51.48 23.832C51.176 23.944 50.88 24 50.592 24C50.336 24 50.112 23.96 49.92 23.88C49.744 23.784 49.624 23.616 49.56 23.376L48.648 20.184H43.128L42.24 23.376C42.176 23.616 42.048 23.784 41.856 23.88C41.664 23.96 41.44 24 41.184 24ZM43.8 17.736H47.976L45.888 10.368L43.8 17.736ZM58.9013 24.216C57.8613 24.216 56.9173 24.064 56.0693 23.76C55.2373 23.456 54.5733 23.08 54.0773 22.632C53.5973 22.168 53.3573 21.704 53.3573 21.24C53.3573 21.016 53.4133 20.776 53.5253 20.52C53.6533 20.248 53.8213 20.024 54.0293 19.848C54.2373 19.656 54.4693 19.56 54.7253 19.56C54.9813 19.56 55.2213 19.656 55.4453 19.848C55.6693 20.024 55.9253 20.24 56.2133 20.496C56.5013 20.736 56.8533 20.952 57.2693 21.144C57.6853 21.32 58.1973 21.408 58.8053 21.408C59.2853 21.408 59.7253 21.336 60.1253 21.192C60.5413 21.032 60.8693 20.8 61.1093 20.496C61.3653 20.192 61.4933 19.8 61.4933 19.32C61.4933 18.808 61.3573 18.376 61.0853 18.024C60.8133 17.672 60.4453 17.368 59.9813 17.112C59.5173 16.856 59.0133 16.608 58.4693 16.368C57.9253 16.128 57.3733 15.872 56.8133 15.6C56.2693 15.328 55.7653 15 55.3013 14.616C54.8533 14.232 54.4853 13.76 54.1973 13.2C53.9253 12.64 53.7893 11.952 53.7893 11.136C53.7893 10.24 53.9573 9.488 54.2933 8.88C54.6453 8.272 55.1013 7.784 55.6613 7.416C56.2373 7.032 56.8693 6.76 57.5573 6.6C58.2453 6.424 58.9333 6.336 59.6213 6.336C59.9893 6.336 60.4213 6.368 60.9173 6.432C61.4293 6.48 61.9333 6.576 62.4293 6.72C62.9413 6.864 63.3573 7.064 63.6773 7.32C64.0133 7.56 64.1813 7.88 64.1813 8.28C64.1813 8.456 64.1333 8.672 64.0373 8.928C63.9573 9.184 63.8213 9.416 63.6293 9.624C63.4533 9.832 63.2213 9.936 62.9333 9.936C62.6773 9.936 62.4213 9.864 62.1653 9.72C61.9253 9.56 61.6053 9.408 61.2053 9.264C60.8213 9.104 60.2933 9.024 59.6213 9.024C59.0613 9.024 58.5733 9.096 58.1573 9.24C57.7413 9.384 57.4293 9.592 57.2213 9.864C57.0133 10.12 56.9093 10.448 56.9093 10.848C56.9093 11.264 57.0453 11.616 57.3173 11.904C57.6053 12.192 57.9733 12.448 58.4213 12.672C58.8853 12.896 59.3893 13.12 59.9333 13.344C60.4773 13.568 61.0213 13.832 61.5653 14.136C62.1253 14.424 62.6373 14.776 63.1013 15.192C63.5653 15.608 63.9333 16.128 64.2053 16.752C64.4773 17.36 64.6133 18.112 64.6133 19.008C64.6133 20.144 64.3653 21.104 63.8693 21.888C63.3733 22.656 62.6933 23.24 61.8293 23.64C60.9813 24.024 60.0053 24.216 58.9013 24.216ZM71.5849 24C71.1849 24 70.8249 23.92 70.5049 23.76C70.1849 23.584 70.0249 23.328 70.0249 22.992V9.264H66.4969C66.1929 9.264 65.9529 9.12 65.7769 8.832C65.6009 8.544 65.5129 8.216 65.5129 7.848C65.5129 7.512 65.5929 7.2 65.7529 6.912C65.9129 6.608 66.1609 6.456 66.4969 6.456H76.6489C77.0009 6.456 77.2489 6.608 77.3929 6.912C77.5529 7.2 77.6329 7.512 77.6329 7.848C77.6329 8.216 77.5449 8.544 77.3689 8.832C77.2089 9.12 76.9689 9.264 76.6489 9.264H73.1449V22.992C73.1449 23.328 72.9769 23.584 72.6409 23.76C72.3209 23.92 71.9689 24 71.5849 24ZM88.9234 24.12C88.7154 24.12 88.5074 24.056 88.2994 23.928C88.1074 23.8 87.9554 23.616 87.8434 23.376L84.4354 16.752H82.4194V22.992C82.4194 23.328 82.2594 23.584 81.9394 23.76C81.6194 23.92 81.2594 24 80.8594 24C80.4754 24 80.1154 23.92 79.7794 23.76C79.4594 23.584 79.2994 23.328 79.2994 22.992V7.44C79.2994 7.168 79.3874 6.936 79.5634 6.744C79.7554 6.552 80.0034 6.456 80.3074 6.456H85.0594C86.1154 6.456 87.0674 6.608 87.9154 6.912C88.7794 7.216 89.4674 7.736 89.9794 8.472C90.4914 9.192 90.7474 10.192 90.7474 11.472C90.7474 12.4 90.6114 13.192 90.3394 13.848C90.0674 14.488 89.6914 15.008 89.2114 15.408C88.7474 15.792 88.2114 16.08 87.6034 16.272L90.7714 22.104C90.8034 22.168 90.8274 22.24 90.8434 22.32C90.8594 22.384 90.8674 22.44 90.8674 22.488C90.8674 22.744 90.7714 23 90.5794 23.256C90.3874 23.512 90.1394 23.72 89.8354 23.88C89.5474 24.04 89.2434 24.12 88.9234 24.12ZM82.4194 14.304H85.0594C85.8434 14.304 86.4674 14.112 86.9314 13.728C87.3954 13.344 87.6274 12.688 87.6274 11.76C87.6274 10.8 87.3954 10.136 86.9314 9.768C86.4674 9.384 85.8434 9.192 85.0594 9.192H82.4194V14.304ZM98.388 24.144C97.332 24.144 96.38 23.968 95.532 23.616C94.684 23.248 94.004 22.664 93.492 21.864C92.996 21.048 92.748 19.968 92.748 18.624V11.976C92.748 10.632 92.996 9.56 93.492 8.76C94.004 7.944 94.676 7.36 95.508 7.008C96.356 6.64 97.316 6.456 98.388 6.456C99.444 6.456 100.396 6.64 101.244 7.008C102.108 7.36 102.788 7.944 103.284 8.76C103.78 9.56 104.028 10.632 104.028 11.976V18.624C104.028 19.968 103.78 21.048 103.284 21.864C102.788 22.664 102.108 23.248 101.244 23.616C100.396 23.968 99.444 24.144 98.388 24.144ZM98.388 21.408C99.172 21.408 99.788 21.184 100.236 20.736C100.684 20.288 100.908 19.584 100.908 18.624V11.976C100.908 11.016 100.684 10.312 100.236 9.864C99.788 9.416 99.172 9.192 98.388 9.192C97.604 9.192 96.988 9.416 96.54 9.864C96.108 10.312 95.892 11.016 95.892 11.976V18.624C95.892 19.584 96.108 20.288 96.54 20.736C96.988 21.184 97.604 21.408 98.388 21.408Z"
    fill="#E34F99" />
  <path fill-rule="evenodd" clip-rule="evenodd"
    d="M24.83 14.0483C26.481 16.996 25.5886 18.0585 25.4947 18.3411C25.3367 18.818 25.3711 19.3172 25.5979 19.8396C25.9836 20.8491 25.926 21.5853 25.4222 22.0482C24.844 22.4582 24.3132 22.4229 23.827 21.9432C23.3827 21.4542 23.3474 20.7738 23.722 19.9009C24.4359 17.1931 23.5138 16.1464 21.7634 15.4511C20.5215 14.9575 18.8231 14.6237 17.3302 14.291C15.3558 13.8503 13.0542 13.0416 11.0872 11.8899C4.50772 8.03772 6.70337 4.69869 11.7946 6.07353C9.1844 5.89598 8.27528 6.36728 8.04939 7.00031C7.6943 7.99682 10.1288 10.054 14.1892 11.3898C18.5731 12.7246 23.0573 13.247 24.8347 15.9586C24.7315 15.5273 24.5735 15.1369 24.3625 14.7808C24.5326 14.5457 24.6878 14.3021 24.83 14.0483Z"
    fill="#F075B5" />
  <path fill-rule="evenodd" clip-rule="evenodd"
    d="M16.4924 4.51613C16.6942 4.51613 16.8587 4.67974 16.8587 4.88239C16.8587 5.0841 16.6951 5.24864 16.4924 5.24864C16.2907 5.24864 16.1262 5.08503 16.1262 4.88239C16.1271 4.67974 16.2907 4.51613 16.4924 4.51613ZM21.6423 8.87676C21.9992 8.87676 22.2893 9.16679 22.2893 9.52374C22.2893 9.88163 21.9992 10.1707 21.6423 10.1707C21.2853 10.1707 20.9953 9.8807 20.9953 9.52374C20.9944 9.16679 21.2844 8.87676 21.6423 8.87676ZM19.9254 5.30348C20.485 5.30348 20.9386 5.75711 20.9386 6.31672C20.9386 6.87632 20.485 7.32995 19.9254 7.32995C19.3658 7.32995 18.9121 6.87632 18.9121 6.31672C18.9121 5.75711 19.3658 5.30348 19.9254 5.30348ZM17.027 6.90793C17.4155 6.90793 17.7306 7.22305 17.7306 7.61161C17.7306 8.00017 17.4155 8.3153 17.027 8.3153C16.6384 8.3153 16.3233 8.00017 16.3233 7.61161C16.3233 7.22305 16.6393 6.90793 17.027 6.90793ZM10.9531 8.82656C11.6168 5.50334 14.5506 3 18.069 3C22.0764 3 25.3252 6.24886 25.3252 10.2562C25.3252 11.2713 25.117 12.2372 24.7406 13.1147C24.5546 13.5479 24.3278 13.9587 24.0657 14.3436C22.8219 12.7549 20.3437 11.9351 16.8448 11.2435C14.3805 10.7554 12.4367 10.0638 10.9531 8.82656Z"
    fill="#C43A80" />
  <path fill-rule="evenodd" clip-rule="evenodd"
    d="M21.6425 8.87682C21.9995 8.87682 22.2895 9.16685 22.2895 9.5238C22.2895 9.88169 21.9995 10.1708 21.6425 10.1708C21.2856 10.1708 20.9956 9.88076 20.9956 9.5238C20.9946 9.16685 21.2847 8.87682 21.6425 8.87682ZM19.9256 5.30354C20.4852 5.30354 20.9389 5.75717 20.9389 6.31678C20.9389 6.87638 20.4852 7.33001 19.9256 7.33001C19.366 7.33001 18.9124 6.87638 18.9124 6.31678C18.9124 5.75717 19.366 5.30354 19.9256 5.30354ZM20.1106 3.29102C23.1243 4.17318 25.3246 6.95725 25.3246 10.2554C25.3246 11.2705 25.1164 12.2363 24.7399 13.1138C24.554 13.547 24.3272 13.9579 24.065 14.3427C23.1866 13.2216 21.6937 12.4826 19.6607 11.9026C19.5296 11.382 19.3465 10.8577 19.1122 10.3325C17.901 7.61911 18.2226 5.27751 20.1106 3.29102Z"
    fill="#DA579B" />
  <path fill-rule="evenodd" clip-rule="evenodd"
    d="M10.9531 8.82639C11.3807 6.68652 12.75 4.88593 14.611 3.87549C13.8608 5.97446 14.2392 8.11341 15.9933 10.0869C16.3326 10.4689 16.6337 10.8575 16.8959 11.2526L16.8457 11.2424C14.3805 10.7553 12.4367 10.0637 10.9531 8.82639Z"
    fill="#AE1C66" />
  <path fill-rule="evenodd" clip-rule="evenodd"
    d="M21.8945 16.4227C20.7837 17.1134 19.473 17.5122 18.0684 17.5122C15.0287 17.5122 12.4259 15.6428 11.3457 12.9907C12.1172 13.3997 12.926 13.7613 13.7384 14.0737C14.905 14.5217 16.0754 14.8685 17.1518 15.1092C17.9531 15.2886 17.7653 15.2468 17.8248 15.2598C19.1114 15.5415 20.475 15.8399 21.4567 16.2303C21.611 16.2907 21.7579 16.3548 21.8945 16.4227Z"
    fill="#C43A80" />
  <path fill-rule="evenodd" clip-rule="evenodd"
    d="M21.8943 16.4224C21.0521 16.9457 20.0946 17.3018 19.0684 17.444C19.3463 16.863 19.5555 16.2783 19.6958 15.689C20.3419 15.8516 20.9498 16.0283 21.4555 16.229C21.6107 16.2904 21.7576 16.3545 21.8943 16.4224Z"
    fill="#DA579B" />
  <path fill-rule="evenodd" clip-rule="evenodd"
    d="M17.7969 17.507C14.8744 17.3992 12.3933 15.5633 11.3457 12.9902C12.1172 13.3992 12.926 13.7608 13.7384 14.0732C14.905 14.5212 16.0754 14.868 17.1518 15.1087C17.9531 15.2881 17.7653 15.2463 17.8248 15.2593L18.1455 15.33C18.1334 16.0271 18.0191 16.7513 17.7969 17.507Z"
    fill="#AE1C66" />
  <path
    d="M10.8887 13.8901L11.0049 27.3569C11.0293 28.2963 11.6358 28.8934 12.3383 28.9901C14.5621 26.5821 16.7118 20.8812 17.5087 18.3317C14.607 18.1131 12.1326 16.364 10.8887 13.8901Z"
    fill="#E0985E" />
  <path
    d="M18.125 18.3547C17.9175 18.3547 17.7119 18.3469 17.5083 18.3315C16.7114 20.881 14.5617 26.5819 12.3379 28.9899C12.4998 29.0121 12.6667 29.0078 12.8328 28.975C13.8526 28.1552 17.0746 21.5456 18.5582 18.3433C18.4147 18.3509 18.2703 18.3547 18.125 18.3547Z"
    fill="#EEB07C" />
  <path
    d="M13.8807 28.2909L21.9364 17.4019C20.9203 17.9457 19.7755 18.279 18.5593 18.3433C17.0758 21.5456 13.8537 28.1552 12.834 28.975C13.2103 28.9007 13.5823 28.6802 13.8807 28.2909Z"
    fill="#FCC89A" />
</svg>